<svg width="25" height="25" viewBox="0 0 46 41" fill="none" xmlns="http://www.w3.org/2000/svg">
<path d="M2.16669 12.6667L4.88335 14.8396C5.82978 15.5966 6.92993 16.138 8.10709 16.4262C9.28425 16.7143 10.5101 16.7422 11.6992 16.508C12.8882 16.2738 14.0119 15.783 14.9918 15.0699C15.9717 14.3568 16.7843 13.4385 17.3729 12.3792L23 2.25L28.6271 12.3792C29.2159 13.4384 30.0286 14.3564 31.0086 15.0693C31.9886 15.7822 33.1123 16.2728 34.3014 16.5068C35.4904 16.7409 36.7162 16.7127 37.8933 16.4244C39.0704 16.1361 40.1704 15.5946 41.1167 14.8375L43.8334 12.6667L40.1792 30.9375C40.0196 31.7349 39.6802 32.4853 39.1866 33.1315C38.6931 33.7778 38.0585 34.3028 37.3313 34.6667V34.6667C32.8816 36.8917 27.975 38.05 23 38.05C18.0251 38.05 13.1184 36.8917 8.66877 34.6667V34.6667C7.94153 34.3028 7.30696 33.7778 6.81342 33.1315C6.31988 32.4853 5.9804 31.7349 5.82085 30.9375L2.16669 12.6667Z" stroke="#FE5F1E" stroke-width="4.16667" stroke-linecap="round" stroke-linejoin="round"/>
<path d="M14.6667 27.25C20.075 30.0271 25.925 30.0271 31.3334 27.25" stroke="#FE5F1E" stroke-width="4.16667" stroke-linecap="round" stroke-linejoin="round"/>
</svg>
