<svg width="27" height="26" viewBox="0 0 27 26" fill="none" xmlns="http://www.w3.org/2000/svg">
<path d="M23.4297 19.4453H21.3701C21.2295 19.4453 21.0976 19.5068 21.0097 19.6152C20.8047 19.8643 20.5849 20.1045 20.3535 20.333C19.4069 21.2806 18.2856 22.0357 17.0517 22.5566C15.7734 23.0966 14.3994 23.3736 13.0117 23.3711C11.6084 23.3711 10.249 23.0957 8.97166 22.5566C7.73776 22.0357 6.6165 21.2806 5.6699 20.333C4.72161 19.3887 3.96546 18.2694 3.44334 17.0371C2.90135 15.7598 2.62889 14.4033 2.62889 13C2.62889 11.5967 2.90428 10.2402 3.44334 8.96289C3.96482 7.72949 4.71482 6.61914 5.6699 5.66699C6.62498 4.71484 7.73533 3.96484 8.97166 3.44336C10.249 2.9043 11.6084 2.6289 13.0117 2.6289C14.415 2.6289 15.7744 2.90137 17.0517 3.44336C18.2881 3.96484 19.3984 4.71484 20.3535 5.66699C20.5849 5.89844 20.8017 6.13867 21.0097 6.38476C21.0976 6.49316 21.2324 6.55469 21.3701 6.55469H23.4297C23.6142 6.55469 23.7285 6.34961 23.626 6.19433C21.3789 2.70215 17.4472 0.390624 12.9795 0.402342C5.95994 0.41992 0.332012 6.11816 0.402324 13.1289C0.472637 20.0283 6.09178 25.5977 13.0117 25.5977C17.4678 25.5977 21.3818 23.2891 23.626 19.8057C23.7256 19.6504 23.6142 19.4453 23.4297 19.4453ZM26.0342 12.8154L21.8769 9.53418C21.7217 9.41113 21.4961 9.52246 21.4961 9.71875V11.9453H12.2969C12.1679 11.9453 12.0625 12.0508 12.0625 12.1797V13.8203C12.0625 13.9492 12.1679 14.0547 12.2969 14.0547H21.4961V16.2812C21.4961 16.4775 21.7246 16.5889 21.8769 16.4658L26.0342 13.1846C26.0622 13.1626 26.0848 13.1346 26.1004 13.1027C26.116 13.0707 26.1241 13.0356 26.1241 13C26.1241 12.9644 26.116 12.9293 26.1004 12.8973C26.0848 12.8654 26.0622 12.8374 26.0342 12.8154V12.8154Z" fill="black"/>
</svg>
