<svg width="42" height="46" viewBox="0 0 42 46" fill="none" xmlns="http://www.w3.org/2000/svg">
<path d="M20.9999 23C26.7529 23 31.4166 18.3363 31.4166 12.5833C31.4166 6.83037 26.7529 2.16667 20.9999 2.16667C15.247 2.16667 10.5833 6.83037 10.5833 12.5833C10.5833 18.3363 15.247 23 20.9999 23Z" stroke="black" stroke-width="4.16667"/>
<path d="M31.4166 27.1667H32.15C33.673 27.1671 35.1435 27.7237 36.2852 28.7318C37.4269 29.74 38.1611 31.1303 38.35 32.6417L39.1645 39.15C39.2378 39.7363 39.1855 40.3315 39.0112 40.8961C38.8369 41.4606 38.5444 41.9817 38.1533 42.4246C37.7623 42.8675 37.2814 43.2222 36.7428 43.465C36.2041 43.7079 35.62 43.8335 35.0291 43.8333H6.9708C6.37993 43.8335 5.79579 43.7079 5.25714 43.465C4.7185 43.2222 4.23767 42.8675 3.84658 42.4246C3.45548 41.9817 3.16306 41.4606 2.98872 40.8961C2.81438 40.3315 2.76211 39.7363 2.83538 39.15L3.64788 32.6417C3.83683 31.1296 4.57166 29.7387 5.7142 28.7305C6.85673 27.7222 8.32825 27.1661 9.85205 27.1667H10.5833" stroke="black" stroke-width="4.16667" stroke-linecap="round" stroke-linejoin="round"/>
</svg>
