<svg width="16" height="16" viewBox="0 0 16 16" fill="none" xmlns="http://www.w3.org/2000/svg">
<path d="M3.40192 4.36111H13.6766C13.8848 4.36112 14.0906 4.40667 14.2809 4.49481C14.4712 4.58296 14.6417 4.71176 14.7814 4.8729C14.9211 5.03404 15.0269 5.22395 15.092 5.43038C15.1571 5.63682 15.18 5.8552 15.1593 6.07144L14.7122 10.7381C14.6755 11.1219 14.5034 11.4778 14.2294 11.7367C13.9554 11.9955 13.5991 12.1389 13.2295 12.1389H6.11401C5.76939 12.139 5.43537 12.0145 5.16883 11.7864C4.90229 11.5584 4.71971 11.241 4.65216 10.8882L3.40192 4.36111Z" stroke="black" stroke-width="1.5" stroke-linejoin="round"/>
<path d="M11.5978 15.25H13.088M3.40193 4.36111L2.79841 1.83878C2.75805 1.67059 2.66501 1.5213 2.53406 1.41462C2.40312 1.30795 2.24178 1.25 2.07568 1.25H1.16669L3.40193 4.36111ZM5.63717 15.25H7.12733H5.63717Z" stroke="black" stroke-width="1.5" stroke-linecap="round" stroke-linejoin="round"/>
</svg>
